<svg width="173" height="34" viewBox="0 0 173 34" fill="none" xmlns="http://www.w3.org/2000/svg">
<circle cx="16" cy="17" r="16" fill="#F59E0B"/>
<circle cx="16" cy="17" r="12" fill="#111827"/>
<circle cx="16" cy="17" r="6" fill="#F59E0B"/>
<path d="M38.6113 9.12891H41.4824L42.0684 11.6191H45.9355V14.6953H42.4932V21.7705C42.4932 23.2061 43.1133 23.9238 44.3535 23.9238H45.9355V27H42.4785C39.9004 27 38.6113 25.6182 38.6113 22.8545V9.12891ZM48.5869 27V11.6191H51.5898L52.0732 13.582C53.4209 12.2734 54.8467 11.6191 56.3506 11.6191V14.7539C54.9053 14.7539 53.6113 15.3545 52.4688 16.5557V27H48.5869ZM57.8154 22.21C57.8154 19.1533 60.042 17.625 64.4951 17.625C65.54 17.625 66.585 17.7227 67.6299 17.918V16.7607C67.6299 15.3838 66.6387 14.6953 64.6562 14.6953C62.9766 14.6953 61.1113 14.9395 59.0605 15.4277V12.3516C61.1113 11.8633 62.9766 11.6191 64.6562 11.6191C69.2266 11.6191 71.5117 13.3086 71.5117 16.6875V27H69.2559L67.8789 25.623C66.541 26.541 65.0664 27 63.4551 27C59.6953 27 57.8154 25.4033 57.8154 22.21ZM67.6299 20.5547C66.6533 20.3594 65.6084 20.2617 64.4951 20.2617C62.6299 20.2617 61.6973 20.8965 61.6973 22.166C61.6973 23.5332 62.4785 24.2168 64.041 24.2168C65.3301 24.2168 66.5264 23.8164 67.6299 23.0156V20.5547ZM75.1885 27V11.6191H78.1914L78.6748 13.875C80.1494 12.3711 81.8291 11.6191 83.7139 11.6191C87.3564 11.6191 89.1777 13.5137 89.1777 17.3027V27H85.2959V17.3027C85.2959 15.6035 84.4512 14.7539 82.7617 14.7539C81.502 14.7539 80.2715 15.2568 79.0703 16.2627V27H75.1885ZM92.8545 26.2676V23.0449C94.5635 23.7285 96.5361 24.0703 98.7725 24.0703C100.442 24.0703 101.277 23.5332 101.277 22.459C101.277 21.4336 100.716 20.9209 99.5928 20.9209H96.8096C93.6846 20.9209 92.1221 19.3828 92.1221 16.3066C92.1221 13.084 94.4023 11.4727 98.9629 11.4727C100.896 11.4727 102.718 11.7656 104.427 12.3516V15.5742C102.718 14.8906 100.862 14.5488 98.8604 14.5488C96.7607 14.5488 95.7109 15.0859 95.7109 16.1602C95.7109 17.1855 96.3213 17.6982 97.542 17.6982H100.032C103.45 17.6982 105.159 19.2363 105.159 22.3125C105.159 25.5352 102.981 27.1465 98.626 27.1465C96.4873 27.1465 94.5635 26.8535 92.8545 26.2676Z" fill="#111827"/>
<path d="M114.373 11.6191C119.041 11.6191 121.375 14.002 121.375 18.7676C121.375 19.4023 121.331 20.0371 121.243 20.6719H111.033C111.033 22.8398 112.625 23.9238 115.809 23.9238C117.361 23.9238 118.914 23.7773 120.467 23.4844V26.5605C119.109 26.8535 117.459 27 115.516 27C109.939 27 107.151 24.3779 107.151 19.1338C107.151 14.124 109.559 11.6191 114.373 11.6191ZM111.033 17.9766H117.596V17.8594C117.596 15.7305 116.521 14.666 114.373 14.666C112.322 14.666 111.209 15.7695 111.033 17.9766ZM123.558 22.21C123.558 19.1533 125.784 17.625 130.237 17.625C131.282 17.625 132.327 17.7227 133.372 17.918V16.7607C133.372 15.3838 132.381 14.6953 130.398 14.6953C128.719 14.6953 126.854 14.9395 124.803 15.4277V12.3516C126.854 11.8633 128.719 11.6191 130.398 11.6191C134.969 11.6191 137.254 13.3086 137.254 16.6875V27H134.998L133.621 25.623C132.283 26.541 130.809 27 129.197 27C125.438 27 123.558 25.4033 123.558 22.21ZM133.372 20.5547C132.396 20.3594 131.351 20.2617 130.237 20.2617C128.372 20.2617 127.439 20.8965 127.439 22.166C127.439 23.5332 128.221 24.2168 129.783 24.2168C131.072 24.2168 132.269 23.8164 133.372 23.0156V20.5547ZM140.931 27V11.6191H143.934L144.417 13.582C145.765 12.2734 147.19 11.6191 148.694 11.6191V14.7539C147.249 14.7539 145.955 15.3545 144.812 16.5557V27H140.931ZM154.773 6.05273V27H150.892V6.05273H154.773ZM156.619 11.6191H160.735L164.617 22.6934L168.411 11.6191H172.454L166.067 27.4541C164.935 30.2471 163.123 32.2344 160.633 33.416L158.758 30.7646C160.477 30.0127 161.727 28.7871 162.508 27.0879L156.619 11.6191Z" fill="#D97706"/>
</svg>
